HIERARCHY
ROOT Hips
{
	OFFSET -14.64140 90.27770 -84.91600
	CHANNELS 6 Xposition Yposition Zposition Zrotation Xrotation Yrotation
	JOINT Spine
	{
		OFFSET 0.00000 13.20850 -1.60436
		CHANNELS 3 Zrotation Xrotation Yrotation
		JOINT Spine1
		{
			OFFSET 0.00000 8.61716 0.00000
			CHANNELS 3 Zrotation Xrotation Yrotation
			JOINT Spine2
			{
				OFFSET 0.00000 8.61717 0.00000
				CHANNELS 3 Zrotation Xrotation Yrotation
				JOINT Spine3
				{
					OFFSET 0.00000 8.61717 0.00000
					CHANNELS 3 Zrotation Xrotation Yrotation
					JOINT Neck
					{
						OFFSET 0.00000 11.07920 1.10792
						CHANNELS 3 Zrotation Xrotation Yrotation
						JOINT Neck1
						{
							OFFSET 0.00000 7.08032 0.00000
							CHANNELS 3 Zrotation Xrotation Yrotation
							JOINT Head
							{
								OFFSET 0.00000 7.08031 0.00000
								CHANNELS 3 Zrotation Xrotation Yrotation
								End site
								{
									OFFSET 0.00000 0.00000 0.00000
								}
							}
						}
					}
					JOINT RightShoulder
					{
						OFFSET -0.01000 7.91373 5.19711
						CHANNELS 3 Zrotation Xrotation Yrotation
						JOINT RightArm
						{
							OFFSET -18.41580 0.00000 0.00000
							CHANNELS 3 Zrotation Xrotation Yrotation
							JOINT RightForeArm
							{
								OFFSET -29.11090 0.00000 0.00000
								CHANNELS 3 Zrotation Xrotation Yrotation
								JOINT RightHand
								{
									OFFSET -24.65040 0.00000 0.00000
									CHANNELS 3 Zrotation Xrotation Yrotation
									JOINT RightHandThumb1
									{
										OFFSET -5.35114 -0.85590 3.97906
										CHANNELS 3 Zrotation Xrotation Yrotation
										JOINT RightHandThumb2
										{
											OFFSET -4.52789 0.00000 0.00000
											CHANNELS 3 Zrotation Xrotation Yrotation
											JOINT RightHandThumb3
											{
												OFFSET -2.46976 0.00000 0.00000
												CHANNELS 3 Zrotation Xrotation Yrotation
												End site
												{
													OFFSET 0.00000 0.00000 0.00000
												}
											}
										}
									}
									JOINT RightHandIndex1
									{
										OFFSET -14.26970 0.00000 2.88139
										CHANNELS 3 Zrotation Xrotation Yrotation
										JOINT RightHandIndex2
										{
											OFFSET -5.48836 0.00000 0.00000
											CHANNELS 3 Zrotation Xrotation Yrotation
											JOINT RightHandIndex3
											{
												OFFSET -3.01859 0.00000 0.00000
												CHANNELS 3 Zrotation Xrotation Yrotation
												End site
												{
													OFFSET 0.00000 0.00000 0.00000
												}
											}
										}
									}
									JOINT RightHandMiddle1
									{
										OFFSET -14.26970 0.00000 -0.09147
										CHANNELS 3 Zrotation Xrotation Yrotation
										JOINT RightHandMiddle2
										{
											OFFSET -6.17441 0.00000 0.00000
											CHANNELS 3 Zrotation Xrotation Yrotation
											JOINT RightHandMiddle3
											{
												OFFSET -3.56743 0.00000 0.00000
												CHANNELS 3 Zrotation Xrotation Yrotation
												End site
												{
													OFFSET 0.00000 0.00000 0.00000
												}
											}
										}
									}
									JOINT RightHandRing1
									{
										OFFSET -12.69180 0.00000 -3.06433
										CHANNELS 3 Zrotation Xrotation Yrotation
										JOINT RightHandRing2
										{
											OFFSET -5.62556 0.00000 0.00000
											CHANNELS 3 Zrotation Xrotation Yrotation
											JOINT RightHandRing3
											{
												OFFSET -3.56744 0.00000 0.00000
												CHANNELS 3 Zrotation Xrotation Yrotation
												End site
												{
													OFFSET 0.00000 0.00000 0.00000
												}
											}
										}
									}
									JOINT RightHandPinky1
									{
										OFFSET -11.11390 0.00000 -6.03719
										CHANNELS 3 Zrotation Xrotation Yrotation
										JOINT RightHandPinky2
										{
											OFFSET -4.52789 0.00000 0.00000
											CHANNELS 3 Zrotation Xrotation Yrotation
											JOINT RightHandPinky3
											{
												OFFSET -2.46976 0.00000 0.00000
												CHANNELS 3 Zrotation Xrotation Yrotation
												End site
												{
													OFFSET 0.00000 0.00000 0.00000
												}
											}
										}
									}
								}
							}
						}
					}
					JOINT LeftShoulder
					{
						OFFSET 0.01000 7.91373 5.19711
						CHANNELS 3 Zrotation Xrotation Yrotation
						JOINT LeftArm
						{
							OFFSET 18.41580 0.00000 0.00000
							CHANNELS 3 Zrotation Xrotation Yrotation
							JOINT LeftForeArm
							{
								OFFSET 29.11090 0.00000 0.00000
								CHANNELS 3 Zrotation Xrotation Yrotation
								JOINT LeftHand
								{
									OFFSET 24.65040 0.00000 0.00000
									CHANNELS 3 Zrotation Xrotation Yrotation
									JOINT LeftHandThumb1
									{
										OFFSET 5.35114 -0.85590 3.97906
										CHANNELS 3 Zrotation Xrotation Yrotation
										JOINT LeftHandThumb2
										{
											OFFSET 4.52789 0.00000 0.00000
											CHANNELS 3 Zrotation Xrotation Yrotation
											JOINT LeftHandThumb3
											{
												OFFSET 2.46977 0.00000 0.00000
												CHANNELS 3 Zrotation Xrotation Yrotation
												End site
												{
													OFFSET 0.00000 0.00000 0.00000
												}
											}
										}
									}
									JOINT LeftHandIndex1
									{
										OFFSET 14.26970 0.00000 2.88139
										CHANNELS 3 Zrotation Xrotation Yrotation
										JOINT LeftHandIndex2
										{
											OFFSET 5.48836 0.00000 0.00000
											CHANNELS 3 Zrotation Xrotation Yrotation
											JOINT LeftHandIndex3
											{
												OFFSET 3.01859 0.00000 0.00000
												CHANNELS 3 Zrotation Xrotation Yrotation
												End site
												{
													OFFSET 0.00000 0.00000 0.00000
												}
											}
										}
									}
									JOINT LeftHandMiddle1
									{
										OFFSET 14.26970 0.00000 -0.09147
										CHANNELS 3 Zrotation Xrotation Yrotation
										JOINT LeftHandMiddle2
										{
											OFFSET 6.17440 0.00000 0.00000
											CHANNELS 3 Zrotation Xrotation Yrotation
											JOINT LeftHandMiddle3
											{
												OFFSET 3.56744 0.00000 0.00000
												CHANNELS 3 Zrotation Xrotation Yrotation
												End site
												{
													OFFSET 0.00000 0.00000 0.00000
												}
											}
										}
									}
									JOINT LeftHandRing1
									{
										OFFSET 12.69180 0.00000 -3.06433
										CHANNELS 3 Zrotation Xrotation Yrotation
										JOINT LeftHandRing2
										{
											OFFSET 5.62556 0.00000 0.00000
											CHANNELS 3 Zrotation Xrotation Yrotation
											JOINT LeftHandRing3
											{
												OFFSET 3.56744 0.00000 0.00000
												CHANNELS 3 Zrotation Xrotation Yrotation
												End site
												{
													OFFSET 0.00000 0.00000 0.00000
												}
											}
										}
									}
									JOINT LeftHandPinky1
									{
										OFFSET 11.11390 0.00000 -6.03719
										CHANNELS 3 Zrotation Xrotation Yrotation
										JOINT LeftHandPinky2
										{
											OFFSET 4.52789 0.00000 0.00000
											CHANNELS 3 Zrotation Xrotation Yrotation
											JOINT LeftHandPinky3
											{
												OFFSET 2.46976 0.00000 0.00000
												CHANNELS 3 Zrotation Xrotation Yrotation
												End site
												{
													OFFSET 0.00000 0.00000 0.00000
												}
											}
										}
									}
								}
							}
						}
					}
					JOINT pCube4
					{
						OFFSET 0.00000 10.91090 1.10792
						CHANNELS 3 Zrotation Xrotation Yrotation
						End site
						{
							OFFSET 0.00000 0.00000 0.00000
						}
					}
				}
			}
		}
	}
	JOINT RightUpLeg
	{
		OFFSET -9.98441 0.00000 0.00000
		CHANNELS 3 Zrotation Xrotation Yrotation
		JOINT RightLeg
		{
			OFFSET 0.00000 -42.11790 0.00000
			CHANNELS 3 Zrotation Xrotation Yrotation
			JOINT RightFoot
			{
				OFFSET 0.00000 -45.00020 -0.00001
				CHANNELS 3 Zrotation Xrotation Yrotation
				JOINT RightForeFoot
				{
					OFFSET 0.00000 -3.74820 0.00000
					CHANNELS 3 Zrotation Xrotation Yrotation
					JOINT RightToeBase
					{
						OFFSET 0.00000 0.06325 14.43120
						CHANNELS 3 Zrotation Xrotation Yrotation
						End site
						{
							OFFSET 0.00000 0.00000 0.00000
						}
					}
				}
			}
		}
	}
	JOINT LeftUpLeg
	{
		OFFSET 9.98441 0.00000 0.00000
		CHANNELS 3 Zrotation Xrotation Yrotation
		JOINT LeftLeg
		{
			OFFSET 0.00000 -42.11800 0.00000
			CHANNELS 3 Zrotation Xrotation Yrotation
			JOINT LeftFoot
			{
				OFFSET 0.00000 -45.00070 0.00000
				CHANNELS 3 Zrotation Xrotation Yrotation
				JOINT LeftForeFoot
				{
					OFFSET 0.00000 -3.74824 0.00000
					CHANNELS 3 Zrotation Xrotation Yrotation
					JOINT LeftToeBase
					{
						OFFSET 0.00000 0.06325 14.43110
						CHANNELS 3 Zrotation Xrotation Yrotation
						End site
						{
							OFFSET 0.00000 0.00000 0.00000
						}
					}
				}
			}
		}
	}
}
MOTION
Frames: 4
Frame Time: 0.050000
0.0 0.0 0.0 -0.0 0.0 -0.0 -6.500048745928153 7.196156478629278 1.3002046063917405 -0.91436562023949 2.713835215075305 0.4839146588760361 -1.1658947209473252 -0.043274587790171216 -0.95837354853305 -0.1302218462042155 0.7833137166616948 -1.4271461662504645 -0.08601775556261822 8.881047926953507 0.6225015015313532 -0.46921736105788864 -0.009282881636187379 -4.54505489937757 -0.5706245226741599 -12.978565878005115 -0.35517652101173347 4.827809088554628 -1.4177446410321688 -6.996655729123971 46.2430739075483 35.44390538162407 40.98795393439564 -15.43619234523928 51.95484219921337 99.29354149602919 13.676215362976155 -2.6861936898254966 -9.665118180216593 -3.86536 -0.725977 10.6206 -1.70868e-06 -5.05035e-06 -4.22763e-05 5.3837e-07 8.68739e-07 -7.6876e-07 3.79151 9.92397e-06 1.68822e-06 1.76556e-31 -6.36111e-15 1.59028e-15 1.59028e-15 0.0 1.59028e-15 12.7179 -3.38534e-07 3.6896e-06 1.59028e-15 -3.18056e-15 -6.36111e-15 -3.18055e-15 -1.27222e-14 -6.36111e-15 20.451 2.13561e-06 4.66857e-06 -5.59711e-07 -9.78871e-07 1.24245e-06 1.11942e-06 1.95774e-06 -2.4849e-06 43.7139 5.29982e-06 -4.35576e-06 -4.8428e-07 -7.08272e-07 1.41429e-06 4.77083e-15 1.27222e-14 3.18055e-15 -3.592825694248079 -1.06136785096268 7.514181718267804 -40.00830435978541 41.261722466146196 -5.156092757202609 8.01076401964126 10.008668119724135 -116.66214035459028 -7.424663391847863 -0.2061867060750334 -1.7876516265413875 4.41974 -2.75119 -31.8364 2.03418e-06 8.96391e-07 2.71781e-05 3.54379e-06 -1.37708e-07 7.74142e-07 -99.3752 -3.44396e-06 -1.15962e-07 -2.94194e-05 8.15215e-07 -1.12913e-05 -1.15373e-06 -7.17353e-08 -2.96415e-06 -112.724 2.1834e-06 6.07179e-06 -2.81255e-05 -3.4463e-06 7.51827e-08 -9.56363e-07 -5.99521e-07 6.03149e-07 -94.5227 -9.2214e-07 -5.10994e-06 6.36111e-15 0.0 -1.78906e-14 1.2491e-06 6.621e-07 -9.2051e-07 -89.4629 1.15124e-05 -2.27079e-06 -1.9342e-05 1.85979e-06 1.38071e-06 -4.41391e-32 3.18056e-15 7.95139e-16 3.97569e-16 -1.09925e-15 -1.59028e-15 -20.1051 -0.55943 -19.9906 2.43385e-06 39.5646 -2.64641e-06 4.82005 -16.7989 -10.6968 3.97569e-16 0.0 -3.18056e-15 4.85298e-07 6.71905 -2.96902e-06 -14.338 7.94412 21.3297 1.10858e-05 13.1511 -7.29341e-07 5.8046 -7.45139 -3.37426 3.97569e-16 0.0 3.18055e-15 -2.06241e-08 0.0983294 7.19633e-06
0.0 0.0 0.0 -0.0 0.0 -0.0 -6.440640546893989 7.237733496000957 1.2830416835345035 -0.9125569440792684 2.707127456392141 0.48507397749494763 -1.1599903800706322 -0.03995633019612541 -0.9065354331067305 -0.1419270853747455 0.7602660898331072 -1.4091360759743314 -0.04512885265247253 8.916782818475822 0.5346644329486336 -0.46880428356537074 -0.006512870995676821 -4.743574216710371 -0.5548580665870209 -12.984165691483968 -0.3677517221206286 4.674838947762911 -1.3424428041763186 -7.044831659608289 45.869217464681654 35.66275333957696 42.00076391975905 -15.44391194067177 50.720274326602336 99.4734017875749 13.756344019978645 -2.70877871155734 -9.627775625370099 -3.86536 -0.725977 10.6206 -1.70868e-06 -5.05035e-06 -4.22763e-05 5.3837e-07 8.68739e-07 -7.6876e-07 3.79151 9.92397e-06 1.68822e-06 1.76556e-31 -6.36111e-15 1.59028e-15 1.59028e-15 0.0 1.59028e-15 12.7179 -3.38534e-07 3.6896e-06 1.59028e-15 -3.18056e-15 -6.36111e-15 -3.18055e-15 -1.27222e-14 -6.36111e-15 20.451 2.13561e-06 4.66857e-06 -5.59711e-07 -9.78871e-07 1.24245e-06 1.11942e-06 1.95774e-06 -2.4849e-06 43.7139 5.29982e-06 -4.35576e-06 -4.8428e-07 -7.08272e-07 1.41429e-06 4.77083e-15 1.27222e-14 3.18055e-15 -3.526374075372214 -1.025464171874361 7.574872925739657 -39.38934993838385 41.08488567739026 -6.282412521605638 8.057320189541361 8.820494177890351 -116.55845763616531 -7.725797677408042 -0.2060703579128102 -1.8143005741174278 4.41974 -2.75119 -31.8364 2.03418e-06 8.96391e-07 2.71781e-05 3.54379e-06 -1.37708e-07 7.74142e-07 -99.3752 -3.44396e-06 -1.15962e-07 -2.94194e-05 8.15215e-07 -1.12913e-05 -1.15373e-06 -7.17353e-08 -2.96415e-06 -112.724 2.1834e-06 6.07179e-06 -2.81255e-05 -3.4463e-06 7.51827e-08 -9.56363e-07 -5.99521e-07 6.03149e-07 -94.5227 -9.2214e-07 -5.10994e-06 6.36111e-15 0.0 -1.78906e-14 1.2491e-06 6.621e-07 -9.2051e-07 -89.4629 1.15124e-05 -2.27079e-06 -1.9342e-05 1.85979e-06 1.38071e-06 -4.41391e-32 3.18056e-15 7.95139e-16 3.97569e-16 -1.09925e-15 -1.59028e-15 -20.1051 -0.55943 -19.9906 2.43385e-06 39.5646 -2.64641e-06 4.82005 -16.7989 -10.6968 3.97569e-16 0.0 -3.18056e-15 4.85298e-07 6.71905 -2.96902e-06 -14.338 7.94412 21.3297 1.10858e-05 13.1511 -7.29341e-07 5.8046 -7.45139 -3.37426 3.97569e-16 0.0 3.18055e-15 -2.06241e-08 0.0983294 7.19633e-06
0.0 0.0 0.0 -0.0 0.0 -0.0 -6.359411109995766 7.301483135321422 1.2513656488099056 -0.9081136851760241 2.7055011570022813 0.48377924410538425 -1.148849048211056 -0.0318656442070245 -0.8896137709896204 -0.15338117052815722 0.7326183432445791 -1.3954315391256527 -0.03639823726494047 8.949489385134424 0.47330075425771817 -0.4694116549997843 -0.014114027707923877 -4.8366444481434305 -0.5472734240479041 -13.009739472723192 -0.37340411942334306 4.547249949837603 -1.279300633870184 -7.097216680249789 45.56044378253111 35.73373462344467 42.74155172858838 -15.282178251583723 49.43644361998765 99.67775070840528 13.783039907820061 -2.7103917262401644 -9.546766913040637 -3.86536 -0.725977 10.6206 -1.70868e-06 -5.05035e-06 -4.22763e-05 5.3837e-07 8.68739e-07 -7.6876e-07 3.79151 9.92397e-06 1.68822e-06 1.76556e-31 -6.36111e-15 1.59028e-15 1.59028e-15 0.0 1.59028e-15 12.7179 -3.38534e-07 3.6896e-06 1.59028e-15 -3.18056e-15 -6.36111e-15 -3.18055e-15 -1.27222e-14 -6.36111e-15 20.451 2.13561e-06 4.66857e-06 -5.59711e-07 -9.78871e-07 1.24245e-06 1.11942e-06 1.95774e-06 -2.4849e-06 43.7139 5.29982e-06 -4.35576e-06 -4.8428e-07 -7.08272e-07 1.41429e-06 4.77083e-15 1.27222e-14 3.18055e-15 -3.3925708239173624 -0.9667151669345433 7.611995623677031 -38.45086188744836 41.10145230335378 -7.8871986744998415 8.228467174740052 8.442455597997036 -116.52191662358202 -8.253921922581572 -0.19732253493090773 -1.8695847600719049 4.41974 -2.75119 -31.8364 2.03418e-06 8.96391e-07 2.71781e-05 3.54379e-06 -1.37708e-07 7.74142e-07 -99.3752 -3.44396e-06 -1.15962e-07 -2.94194e-05 8.15215e-07 -1.12913e-05 -1.15373e-06 -7.17353e-08 -2.96415e-06 -112.724 2.1834e-06 6.07179e-06 -2.81255e-05 -3.4463e-06 7.51827e-08 -9.56363e-07 -5.99521e-07 6.03149e-07 -94.5227 -9.2214e-07 -5.10994e-06 6.36111e-15 0.0 -1.78906e-14 1.2491e-06 6.621e-07 -9.2051e-07 -89.4629 1.15124e-05 -2.27079e-06 -1.9342e-05 1.85979e-06 1.38071e-06 -4.41391e-32 3.18056e-15 7.95139e-16 3.97569e-16 -1.09925e-15 -1.59028e-15 -20.1051 -0.55943 -19.9906 2.43385e-06 39.5646 -2.64641e-06 4.82005 -16.7989 -10.6968 3.97569e-16 0.0 -3.18056e-15 4.85298e-07 6.71905 -2.96902e-06 -14.338 7.94412 21.3297 1.10858e-05 13.1511 -7.29341e-07 5.8046 -7.45139 -3.37426 3.97569e-16 0.0 3.18055e-15 -2.06241e-08 0.0983294 7.19633e-06
0.0 0.0 0.0 -0.0 0.0 -0.0 -6.2560104437858595 7.383842820795842 1.2097802566763982 -0.9022701102935151 2.7004191477958543 0.4814416536748188 -1.132475940039782 -0.015151369030309057 -0.8935502544009231 -0.1702576105649722 0.7038868044449385 -1.3835010646084382 -0.06232221879884469 8.972076304708441 0.4558599703145342 -0.4717718930687932 -0.031222294342102927 -4.807178087368427 -0.5500953330498249 -13.050576074401837 -0.37211115853367477 4.434879435486062 -1.2216258453931645 -7.139278790637246 45.38830034860953 36.00199203522999 43.34738705361233 -14.850859929682597 48.05580713485077 99.9024915852894 13.797217090451927 -2.714248658483711 -9.478213540994238 -3.86536 -0.725977 10.6206 -1.70868e-06 -5.05035e-06 -4.22763e-05 5.3837e-07 8.68739e-07 -7.6876e-07 3.79151 9.92397e-06 1.68822e-06 1.76556e-31 -6.36111e-15 1.59028e-15 1.59028e-15 0.0 1.59028e-15 12.7179 -3.38534e-07 3.6896e-06 1.59028e-15 -3.18056e-15 -6.36111e-15 -3.18055e-15 -1.27222e-14 -6.36111e-15 20.451 2.13561e-06 4.66857e-06 -5.59711e-07 -9.78871e-07 1.24245e-06 1.11942e-06 1.95774e-06 -2.4849e-06 43.7139 5.29982e-06 -4.35576e-06 -4.8428e-07 -7.08272e-07 1.41429e-06 4.77083e-15 1.27222e-14 3.18055e-15 -3.2062168003921747 -0.890135267058782 7.626047950362782 -37.35589213936204 41.44076748821185 -9.823853159670124 8.457910841870447 8.206437650941881 -116.55791675063666 -8.977767701515328 -0.20194319293775465 -1.8371079099949035 4.41974 -2.75119 -31.8364 2.03418e-06 8.96391e-07 2.71781e-05 3.54379e-06 -1.37708e-07 7.74142e-07 -99.3752 -3.44396e-06 -1.15962e-07 -2.94194e-05 8.15215e-07 -1.12913e-05 -1.15373e-06 -7.17353e-08 -2.96415e-06 -112.724 2.1834e-06 6.07179e-06 -2.81255e-05 -3.4463e-06 7.51827e-08 -9.56363e-07 -5.99521e-07 6.03149e-07 -94.5227 -9.2214e-07 -5.10994e-06 6.36111e-15 0.0 -1.78906e-14 1.2491e-06 6.621e-07 -9.2051e-07 -89.4629 1.15124e-05 -2.27079e-06 -1.9342e-05 1.85979e-06 1.38071e-06 -4.41391e-32 3.18056e-15 7.95139e-16 3.97569e-16 -1.09925e-15 -1.59028e-15 -20.1051 -0.55943 -19.9906 2.43385e-06 39.5646 -2.64641e-06 4.82005 -16.7989 -10.6968 3.97569e-16 0.0 -3.18056e-15 4.85298e-07 6.71905 -2.96902e-06 -14.338 7.94412 21.3297 1.10858e-05 13.1511 -7.29341e-07 5.8046 -7.45139 -3.37426 3.97569e-16 0.0 3.18055e-15 -2.06241e-08 0.0983294 7.19633e-06
